<svg width="40" height="40" viewBox="0 0 40 40" fill="none" xmlns="http://www.w3.org/2000/svg">
<path d="M19.0324 1.70885C19.2924 0.71211 20.7076 0.712111 20.9676 1.70885L21.591 4.09819C21.8111 4.94208 22.9307 5.1194 23.4008 4.38484L24.732 2.30508C25.2873 1.43748 26.6332 1.87478 26.5725 2.9031L26.427 5.36812C26.3756 6.23874 27.3856 6.75333 28.0597 6.20002L29.9685 4.63341C30.7647 3.97987 31.9096 4.81167 31.5341 5.7709L30.634 8.07031C30.3161 8.88245 31.1175 9.68394 31.9297 9.36603L34.2291 8.46592C35.1883 8.09043 36.0201 9.2353 35.3666 10.0316L33.8 11.9403C33.2467 12.6144 33.7613 13.6244 34.6319 13.573L37.0969 13.4275C38.1252 13.3668 38.5625 14.7127 37.6949 15.268L35.6152 16.5992C34.8806 17.0693 35.0579 18.1889 35.9018 18.409L38.2911 19.0324C39.2879 19.2924 39.2879 20.7076 38.2911 20.9676L35.9018 21.591C35.0579 21.8111 34.8806 22.9307 35.6152 23.4008L37.6949 24.732C38.5625 25.2873 38.1252 26.6332 37.0969 26.5725L34.6319 26.427C33.7613 26.3756 33.2467 27.3856 33.8 28.0597L35.3666 29.9685C36.0201 30.7647 35.1883 31.9096 34.2291 31.5341L31.9297 30.634C31.1175 30.3161 30.3161 31.1175 30.634 31.9297L31.5341 34.2291C31.9096 35.1883 30.7647 36.0201 29.9684 35.3666L28.0597 33.8C27.3856 33.2467 26.3756 33.7613 26.427 34.6319L26.5725 37.0969C26.6332 38.1252 25.2873 38.5625 24.732 37.6949L23.4008 35.6152C22.9307 34.8806 21.8111 35.0579 21.591 35.9018L20.9676 38.2911C20.7076 39.2879 19.2924 39.2879 19.0324 38.2911L18.409 35.9018C18.1889 35.0579 17.0693 34.8806 16.5992 35.6152L15.268 37.6949C14.7127 38.5625 13.3668 38.1252 13.4275 37.0969L13.573 34.6319C13.6244 33.7613 12.6144 33.2467 11.9403 33.8L10.0315 35.3666C9.2353 36.0201 8.09043 35.1883 8.46592 34.2291L9.36603 31.9297C9.68394 31.1175 8.88245 30.3161 8.07031 30.634L5.7709 31.5341C4.81167 31.9096 3.97987 30.7647 4.63341 29.9684L6.20002 28.0597C6.75333 27.3856 6.23874 26.3756 5.36812 26.427L2.9031 26.5725C1.87478 26.6332 1.43748 25.2873 2.30508 24.732L4.38484 23.4008C5.1194 22.9307 4.94208 21.8111 4.09819 21.591L1.70885 20.9676C0.71211 20.7076 0.712111 19.2924 1.70885 19.0324L4.09819 18.409C4.94208 18.1889 5.1194 17.0693 4.38484 16.5992L2.30508 15.268C1.43748 14.7127 1.87478 13.3668 2.9031 13.4275L5.36812 13.573C6.23874 13.6244 6.75333 12.6144 6.20002 11.9403L4.63341 10.0315C3.97987 9.2353 4.81167 8.09043 5.7709 8.46592L8.07031 9.36603C8.88245 9.68394 9.68394 8.88245 9.36603 8.07031L8.46592 5.7709C8.09043 4.81167 9.2353 3.97987 10.0316 4.63341L11.9403 6.20002C12.6144 6.75333 13.6244 6.23874 13.573 5.36812L13.4275 2.9031C13.3668 1.87478 14.7127 1.43748 15.268 2.30508L16.5992 4.38484C17.0693 5.1194 18.1889 4.94208 18.409 4.09819L19.0324 1.70885Z" fill="#EEFF89"/>
</svg>
