<svg width="103" height="56" viewBox="0 0 103 56" fill="none" xmlns="http://www.w3.org/2000/svg">
<g filter="url(#filter0_f_0_1)">
<path d="M11.3229 28.9954C10.1175 28.8792 10.1175 27.1208 11.3229 27.0046L35.7663 24.6477C36.5358 24.5735 36.9337 23.6915 36.4801 23.0655L28.5494 12.1208C27.9417 11.282 28.8534 10.186 29.7888 10.631L51.0704 20.7556C51.3422 20.8849 51.6578 20.8849 51.9296 20.7556L73.2112 10.631C74.1466 10.186 75.0583 11.282 74.4506 12.1208L66.5199 23.0655C66.0663 23.6915 66.4642 24.5735 67.2337 24.6477L91.6771 27.0046C92.8825 27.1208 92.8825 28.8792 91.6771 28.9954L67.2337 31.3523C66.4642 31.4265 66.0663 32.3085 66.5199 32.9345L74.4506 43.8792C75.0583 44.718 74.1466 45.814 73.2112 45.369L51.9296 35.2444C51.6578 35.1151 51.3422 35.1151 51.0704 35.2444L29.7888 45.369C28.8534 45.814 27.9417 44.718 28.5494 43.8792L36.4801 32.9345C36.9337 32.3085 36.5358 31.4265 35.7663 31.3523L11.3229 28.9954Z" fill="#A889FF"/>
</g>
<g style="mix-blend-mode:plus-lighter" filter="url(#filter1_f_0_1)">
<path d="M35.2795 20.0511C34.49 19.3282 35.2351 18.0378 36.2559 18.36L46.4387 21.5744C46.9984 21.7511 47.5892 21.41 47.7161 20.8369L50.0237 10.4112C50.255 9.36599 51.7451 9.36599 51.9764 10.4112L54.2841 20.8369C54.4109 21.41 55.0017 21.7511 55.5615 21.5744L65.7442 18.36C66.7651 18.0378 67.5101 19.3282 66.7206 20.0511L58.8455 27.2625C58.4126 27.6589 58.4126 28.3411 58.8455 28.7375L66.7206 35.9488C67.5101 36.6718 66.7651 37.9622 65.7442 37.64L55.5615 34.4255C55.0017 34.2489 54.4109 34.59 54.2841 35.1631L51.9764 45.5888C51.7451 46.634 50.255 46.634 50.0237 45.5888L47.7161 35.1631C47.5892 34.59 46.9984 34.2489 46.4387 34.4255L36.2559 37.64C35.2351 37.9622 34.49 36.6718 35.2795 35.9488L43.1547 28.7375C43.5876 28.3411 43.5876 27.6589 43.1547 27.2625L35.2795 20.0511Z" fill="#A889FF"/>
</g>
<defs>
<filter id="filter0_f_0_1" x="0.418945" y="0.528381" width="102.162" height="54.9432" filterUnits="userSpaceOnUse" color-interpolation-filters="sRGB">
<feFlood flood-opacity="0" result="BackgroundImageFix"/>
<feBlend mode="normal" in="SourceGraphic" in2="BackgroundImageFix" result="shape"/>
<feGaussianBlur stdDeviation="5" result="effect1_foregroundBlur_0_1"/>
</filter>
<filter id="filter1_f_0_1" x="30.9492" y="5.62726" width="40.1018" height="44.7455" filterUnits="userSpaceOnUse" color-interpolation-filters="sRGB">
<feFlood flood-opacity="0" result="BackgroundImageFix"/>
<feBlend mode="normal" in="SourceGraphic" in2="BackgroundImageFix" result="shape"/>
<feGaussianBlur stdDeviation="2" result="effect1_foregroundBlur_0_1"/>
</filter>
</defs>
</svg>
