<svg width="38" height="34" viewBox="0 0 38 34" fill="none" xmlns="http://www.w3.org/2000/svg">
<path d="M1.41118 17.9764C0.365995 17.745 0.365997 16.255 1.41119 16.0236L11.8369 13.716C12.41 13.5892 12.7511 12.9983 12.5744 12.4386L9.36003 2.25582C9.03778 1.23499 10.3282 0.489966 11.0512 1.27946L18.2625 9.1546C18.6589 9.58748 19.3411 9.58748 19.7375 9.1546L26.9488 1.27945C27.6718 0.489964 28.9622 1.23499 28.64 2.25582L25.4256 12.4386C25.2489 12.9983 25.59 13.5892 26.1631 13.716L36.5888 16.0236C37.634 16.255 37.634 17.745 36.5888 17.9764L26.1631 20.284C25.59 20.4108 25.2489 21.0017 25.4256 21.5614L28.64 31.7442C28.9622 32.765 27.6718 33.51 26.9488 32.7205L19.7375 24.8454C19.3411 24.4125 18.6589 24.4125 18.2625 24.8454L11.0512 32.7205C10.3282 33.51 9.03779 32.765 9.36003 31.7442L12.5744 21.5614C12.7511 21.0017 12.41 20.4108 11.8369 20.284L1.41118 17.9764Z" fill="#A889FF"/>
</svg>
